<svg width="14" height="14" viewBox="0 0 14 14" fill="none" xmlns="http://www.w3.org/2000/svg">
<g opacity="0.6" clip-path="url(#clip0_1_2273)">
<path d="M11.4998 6.99997C11.2237 6.99997 10.9998 7.22383 10.9998 7.49997V12.4999C10.9998 12.776 10.776 12.9999 10.4998 12.9999H1.49998C1.22383 12.9999 0.999977 12.776 0.999977 12.4999V2.50003C0.999977 2.22388 1.22383 2.00003 1.49998 2.00003H7.4999C7.77605 2.00003 7.9999 1.77617 7.9999 1.50003C7.9999 1.22388 7.77605 1.00005 7.4999 1.00005H1.49998C0.671563 1.00005 0 1.67161 0 2.50003V12.4999C0 13.3283 0.671563 13.9999 1.49998 13.9999H10.4999C11.3283 13.9999 11.9998 13.3283 11.9998 12.4999V7.49995C11.9998 7.22383 11.776 6.99997 11.4998 6.99997Z" fill="black"/>
<path d="M13.4354 0.560684C13.0764 0.201626 12.5895 -5.06826e-05 12.0817 7.91039e-06C11.5737 -0.00145691 11.0863 0.200572 10.7283 0.561006L4.14233 7.14639C4.08769 7.20144 4.04647 7.26835 4.02183 7.34188L3.02186 10.3418C2.93458 10.6038 3.07623 10.887 3.33823 10.9742C3.38906 10.9911 3.44229 10.9998 3.49584 10.9998C3.54952 10.9998 3.60286 10.9911 3.65384 10.9744L6.6538 9.97438C6.72748 9.94977 6.79442 9.90834 6.8493 9.85338L13.4352 3.26747C14.1827 2.52006 14.1828 1.30818 13.4354 0.560684ZM12.7282 2.56096L6.2283 9.06089L4.28632 9.70936L4.93281 7.76988L11.4352 1.26998C11.7927 0.913209 12.3717 0.913795 12.7285 1.27127C12.8989 1.44204 12.995 1.67322 12.9957 1.91447C12.9963 2.15702 12.9 2.38975 12.7282 2.56096Z" fill="black"/>
</g>
<defs>
<clipPath id="clip0_1_2273">
<rect width="14" height="14" fill="white"/>
</clipPath>
</defs>
</svg>
