<svg width="26" height="22" viewBox="0 0 26 22" fill="none" xmlns="http://www.w3.org/2000/svg">
<path d="M1.625 21.5624C1.92725 21.5624 2.21223 21.3934 2.35178 21.1133C3.85612 18.1046 5.28044 15.2568 13 15.0719V20.7499C13 21.0729 13.1911 21.3648 13.4865 21.4942C13.7818 21.6235 14.1267 21.5663 14.364 21.3465L24.9265 11.5965C25.093 11.4435 25.1875 11.2268 25.1875 10.9999C25.1875 10.773 25.093 10.5563 24.9265 10.4031L14.364 0.65312C14.1267 0.433339 13.7808 0.377073 13.4865 0.505448C13.1911 0.635042 13 0.926932 13 1.2499V6.94695C1.74647 7.22625 0.8125 13.3667 0.8125 20.7499C0.8125 21.1267 1.07189 21.4537 1.43853 21.5411C1.50048 21.5553 1.56305 21.5624 1.625 21.5624ZM23.177 10.9999L14.625 18.8939V14.2499C14.625 13.8008 14.2616 13.4374 13.8125 13.4374C7.07525 13.4374 4.20692 15.3179 2.52403 17.5785C2.90408 12.0338 4.83681 8.5624 13.8125 8.5624C14.2616 8.5624 14.625 8.19901 14.625 7.7499V3.10585L23.177 10.9999Z" fill="black"/>
</svg>
