<svg width="14" height="15" viewBox="0 0 14 15" fill="none" xmlns="http://www.w3.org/2000/svg">
<g opacity="0.6" clip-path="url(#clip0_1_2282)">
<path d="M11.5937 2.24957H9.1875V1.81207C9.1875 1.08837 8.59871 0.499573 7.875 0.499573H6.125C5.40129 0.499573 4.8125 1.08837 4.8125 1.81207V2.24957H2.40625C1.80316 2.24957 1.3125 2.74023 1.3125 3.34332V4.87457C1.3125 5.11618 1.50839 5.31207 1.75 5.31207H1.98909L2.36707 13.2495C2.40045 13.9505 2.97631 14.4996 3.67806 14.4996H10.3219C11.0237 14.4996 11.5996 13.9505 11.6329 13.2495L12.0109 5.31207H12.25C12.4916 5.31207 12.6875 5.11618 12.6875 4.87457V3.34332C12.6875 2.74023 12.1968 2.24957 11.5937 2.24957ZM5.6875 1.81207C5.6875 1.57085 5.88377 1.37457 6.125 1.37457H7.875C8.11623 1.37457 8.3125 1.57085 8.3125 1.81207V2.24957H5.6875V1.81207ZM2.1875 3.34332C2.1875 3.22271 2.28564 3.12457 2.40625 3.12457H11.5937C11.7144 3.12457 11.8125 3.22271 11.8125 3.34332V4.43707C11.6777 4.43707 2.74621 4.43707 2.1875 4.43707V3.34332ZM10.7589 13.2079C10.7478 13.4415 10.5558 13.6246 10.3219 13.6246H3.67806C3.44414 13.6246 3.25218 13.4415 3.24108 13.2079L2.86508 5.31207H11.1349L10.7589 13.2079Z" fill="black"/>
<path d="M7 12.7496C7.24161 12.7496 7.4375 12.5537 7.4375 12.3121V6.62457C7.4375 6.38296 7.24161 6.18707 7 6.18707C6.75839 6.18707 6.5625 6.38296 6.5625 6.62457V12.3121C6.5625 12.5537 6.75836 12.7496 7 12.7496Z" fill="black"/>
<path d="M9.1875 12.7496C9.42911 12.7496 9.625 12.5537 9.625 12.3121V6.62457C9.625 6.38296 9.42911 6.18707 9.1875 6.18707C8.94589 6.18707 8.75 6.38296 8.75 6.62457V12.3121C8.75 12.5537 8.94586 12.7496 9.1875 12.7496Z" fill="black"/>
<path d="M4.81226 12.7497C5.05387 12.7497 5.24976 12.5538 5.24976 12.3122V6.62466C5.24976 6.38305 5.05387 6.18716 4.81226 6.18716C4.57065 6.18716 4.37476 6.38305 4.37476 6.62466V12.3122C4.37476 12.5538 4.57062 12.7497 4.81226 12.7497Z" fill="black"/>
</g>
<defs>
<clipPath id="clip0_1_2282">
<rect width="14" height="14" fill="white" transform="translate(0 0.5)"/>
</clipPath>
</defs>
</svg>
